<svg role="img" aria-label="rating star" xmlns="http://www.w3.org/2000/svg" viewBox="-1 -1 40 35"><path d="M519.9,513.72l6.47-5.34a1.3,1.3,0,0,0,.18-1.83,1.32,1.32,0,0,0-.94-.47l-8.33-.51a1.3,1.3,0,0,1-1.13-.82l-3.07-7.83a1.3,1.3,0,0,0-2.43,0l-3.06,7.8a1.31,1.31,0,0,1-1.13.82l-8.37.5a1.3,1.3,0,0,0-.76,2.3l6.47,5.3a1.35,1.35,0,0,1,.45,1.33l-2.12,8.12a1.3,1.3,0,0,0,.94,1.58,1.32,1.32,0,0,0,1-.16l7-4.51a1.22,1.22,0,0,1,1.39,0l7.07,4.51a1.3,1.3,0,0,0,1.95-1.42L519.43,515A1.29,1.29,0,0,1,519.9,513.72Z" transform="translate(-496.86 -496.09)" stroke="#0065B9" stroke-width="2" fill="#0065B9"></path></svg>